<?xml version="1.0" encoding="UTF-8" standalone="no"?>
<svg
   xmlns:dc="http://purl.org/dc/elements/1.1/"
   xmlns:cc="http://creativecommons.org/ns#"
   xmlns:rdf="http://www.w3.org/1999/02/22-rdf-syntax-ns#"
   xmlns:svg="http://www.w3.org/2000/svg"
   xmlns="http://www.w3.org/2000/svg"
   xmlns:sodipodi="http://sodipodi.sourceforge.net/DTD/sodipodi-0.dtd"
   xmlns:inkscape="http://www.inkscape.org/namespaces/inkscape"
   width="1280"
   height="720"
   viewBox="0 0 1280.0001 720.00008"
   version="1.1"
   xml:space="preserve"
   style="clip-rule:evenodd;fill-rule:evenodd;stroke-linejoin:round;stroke-miterlimit:2"
   id="svg66"
   sodipodi:docname="mosaik-background.svg"
   inkscape:version="0.92.5 (2060ec1f9f, 2020-04-08)"
   inkscape:export-filename="/mnt/ad4247cf-f066-4f4c-a5f3-3ab1a55586e0/projects-2024/mosaik-hw/design/logo24/logo24-wot.png"
   inkscape:export-xdpi="96"
   inkscape:export-ydpi="96"><metadata
   id="metadata72"><rdf:RDF><cc:Work
       rdf:about=""><dc:format>image/svg+xml</dc:format><dc:type
         rdf:resource="http://purl.org/dc/dcmitype/StillImage" /><dc:title></dc:title></cc:Work></rdf:RDF></metadata><defs
   id="defs70">
        
        
        
        
    
        
    
        
        
        
    
        
        
        
    
            
        
            
        
        
        
        
        
    
        
        
        
    </defs><sodipodi:namedview
   pagecolor="#000000"
   bordercolor="#000000"
   borderopacity="0.25"
   objecttolerance="10"
   gridtolerance="10"
   guidetolerance="10"
   inkscape:pageopacity="0.30196078"
   inkscape:pageshadow="2"
   inkscape:window-width="1920"
   inkscape:window-height="1009"
   id="namedview68"
   showgrid="false"
   fit-margin-top="0"
   fit-margin-left="0"
   fit-margin-right="0"
   fit-margin-bottom="0"
   inkscape:zoom="0.70710678"
   inkscape:cx="730.0684"
   inkscape:cy="425.5472"
   inkscape:window-x="0"
   inkscape:window-y="0"
   inkscape:window-maximized="1"
   inkscape:current-layer="svg66"
   showguides="false"
   inkscape:guide-bbox="true"
   inkscape:pagecheckerboard="true"
   units="px"
   inkscape:snap-page="true" />
    
    
    
    
    
    <rect
   style="opacity:1;fill:#000000;fill-opacity:1;stroke:none;stroke-width:0.75590545;stroke-linecap:butt;stroke-linejoin:miter;stroke-miterlimit:4;stroke-dasharray:none;stroke-dashoffset:0;stroke-opacity:1"
   id="rect897"
   width="1279.9998"
   height="720"
   x="0.00020377092"
   y="4.5068359e-06"
   rx="3.2125993e-06"
   ry="2.5622901e-05" />
<g
   id="g1057"
   transform="matrix(0.20226888,0,0,0.20226888,104.8635,436.44814)"
   style="stroke-width:4.94391394"><g
     style="fill:#ffffff;stroke-width:2.49450731"
     id="path19745-1-3-2"
     transform="matrix(10.98402,0,0,10.98402,-10186.64,-8971.5032)">
            <path
   d="m 966.652,752.636 c -0.243,-0.244 -0.61,-0.317 -0.929,-0.185 -0.318,0.132 -0.526,0.443 -0.526,0.788 0,9.468 0,48.779 0,58.247 0,0.344 0.208,0.655 0.526,0.787 0.319,0.132 0.686,0.059 0.929,-0.185 5.57,-5.569 25.405,-25.406 29.123,-29.124 0.333,-0.333 0.333,-0.872 0,-1.205 -3.718,-3.718 -23.553,-23.554 -29.123,-29.123 z"
   style="fill:#ffffff;fill-rule:nonzero;stroke-width:2.49450731"
   id="path2"
   inkscape:connector-curvature="0" />
        </g><g
     style="fill:#ffffff;stroke-width:2.49450731"
     id="path19745-3-24-6-6"
     transform="matrix(10.98402,0,0,10.98402,-10186.64,-8971.5032)">
            <path
   d="m 1030.44,812.088 c 0.24,0.244 0.61,0.317 0.93,0.185 0.32,-0.132 0.52,-0.443 0.52,-0.787 0,-9.468 0,-48.779 0,-58.247 0,-0.345 -0.2,-0.656 -0.52,-0.788 -0.32,-0.132 -0.69,-0.059 -0.93,0.185 -5.57,5.57 -25.41,25.406 -29.12,29.124 -0.34,0.333 -0.34,0.873 0,1.206 3.71,3.717 23.55,23.553 29.12,29.122 z"
   style="fill:#ffffff;fill-rule:nonzero;stroke-width:2.49450731"
   id="path5"
   inkscape:connector-curvature="0" />
        </g><g
     style="fill:#ffffff;stroke-width:2.49450731"
     id="path19745-2-7-8-1"
     transform="matrix(10.98402,0,0,10.98402,-10186.64,-8971.5032)">
            <path
   d="m 968.819,814.255 c -0.244,0.244 -0.317,0.611 -0.185,0.929 0.132,0.319 0.443,0.526 0.788,0.526 9.468,0 48.778,0 58.248,0 0.34,0 0.65,-0.207 0.79,-0.526 0.13,-0.318 0.06,-0.685 -0.19,-0.929 -5.57,-5.569 -25.4,-25.405 -29.123,-29.123 -0.333,-0.332 -0.872,-0.332 -1.205,0.001 -3.718,3.717 -23.553,23.553 -29.123,29.122 z"
   style="fill:#ffffff;fill-rule:nonzero;stroke-width:2.49450731"
   id="path8"
   inkscape:connector-curvature="0" />
        </g><g
     style="fill:#ffffff;stroke-width:2.49450731"
     id="path19745-6-8-0-8"
     transform="matrix(10.98402,0,0,10.98402,-10186.64,-8971.5032)">
            <path
   d="m 1043.11,752.636 c -0.25,-0.243 -0.62,-0.316 -0.93,-0.184 -0.32,0.131 -0.53,0.442 -0.53,0.787 0,9.468 0,48.779 0,58.247 0,0.345 0.21,0.655 0.53,0.787 0.31,0.132 0.68,0.059 0.93,-0.184 5.56,-5.57 25.4,-25.407 29.12,-29.125 0.33,-0.332 0.33,-0.872 0,-1.205 -3.72,-3.718 -23.56,-23.553 -29.12,-29.123 z"
   style="fill:#ffffff;fill-rule:nonzero;stroke-width:2.49450731"
   id="path13"
   inkscape:connector-curvature="0" />
        </g><g
     style="fill:#ffffff;stroke-width:2.49450731"
     id="path19745-3-2-6-21-7"
     transform="matrix(10.98402,0,0,10.98402,-10186.64,-8971.5032)">
            <path
   d="m 1106.89,812.089 c 0.24,0.243 0.61,0.316 0.93,0.184 0.32,-0.132 0.53,-0.442 0.53,-0.787 0,-9.468 0,-48.779 0,-58.247 0,-0.345 -0.21,-0.655 -0.53,-0.787 -0.32,-0.132 -0.69,-0.059 -0.93,0.184 -5.57,5.57 -25.4,25.407 -29.12,29.124 -0.34,0.333 -0.34,0.873 0,1.206 3.72,3.718 23.55,23.553 29.12,29.123 z"
   style="fill:#ffffff;fill-rule:nonzero;stroke-width:2.49450731"
   id="path16"
   inkscape:connector-curvature="0" />
        </g><g
     style="fill:#ffffff;stroke-width:2.49450731"
     id="path19745-2-2-3-0-9"
     transform="matrix(10.98402,0,0,10.98402,-10186.64,-8971.5032)">
            <path
   d="m 1045.27,814.255 c -0.24,0.244 -0.32,0.611 -0.18,0.929 0.13,0.319 0.44,0.527 0.78,0.527 9.47,0 48.78,0 58.25,0 0.35,0 0.66,-0.208 0.79,-0.527 0.13,-0.318 0.06,-0.685 -0.19,-0.929 -5.57,-5.569 -25.4,-25.405 -29.12,-29.122 -0.33,-0.333 -0.87,-0.333 -1.21,0 -3.71,3.717 -23.55,23.553 -29.12,29.122 z"
   style="fill:#ffffff;fill-rule:nonzero;stroke-width:2.49450731"
   id="path19"
   inkscape:connector-curvature="0" />
        </g><g
     style="fill:#ffffff;stroke-width:2.49450731"
     id="path19745-3-3-4-7-5-2"
     transform="matrix(10.98402,0,0,10.98402,-10186.64,-8971.5032)">
            <path
   d="m 1104.72,750.47 c 0.25,-0.244 0.32,-0.611 0.19,-0.929 -0.13,-0.319 -0.44,-0.527 -0.79,-0.527 -9.47,0 -48.78,0 -58.25,0 -0.34,0 -0.65,0.208 -0.78,0.527 -0.14,0.318 -0.06,0.685 0.18,0.929 5.57,5.569 25.41,25.405 29.13,29.122 0.33,0.333 0.87,0.333 1.2,0 3.72,-3.717 23.55,-23.553 29.12,-29.122 z"
   style="fill:#ffffff;fill-rule:nonzero;stroke-width:2.49450731"
   id="path22"
   inkscape:connector-curvature="0" />
        </g><path
     inkscape:connector-curvature="0"
     id="path33"
     style="fill:#ffffff;fill-rule:nonzero;stroke-width:27.39971542"
     d="m 2111.4597,-27.709695 c -2.6362,2.680151 -3.5149,6.711179 -1.9772,10.204115 1.428,3.503837 4.833,5.788595 8.5676,5.788595 104.0187,0 535.8005,0 639.8192,0 3.8443,0 7.2494,-2.284758 8.6774,-5.788595 1.4278,-3.492936 0.659,-7.523964 -2.0869,-10.204115 -61.1811,-61.169988 -278.9942,-279.049045 -319.8548,-319.876645 -3.6248,-3.65767 -9.5561,-3.65767 -13.2906,0 -40.7508,40.8276 -258.6737,258.706657 -319.8547,319.876645 z" /><path
     inkscape:connector-curvature="0"
     id="path36"
     style="fill:#ffffff;fill-rule:nonzero;stroke-width:27.39971542"
     d="m 2764.4598,-728.32544 c 2.7459,-2.68011 3.5147,-6.71124 2.0869,-10.20415 -1.428,-3.50392 -4.8331,-5.78858 -8.6774,-5.78858 -104.0187,0 -535.8005,0 -639.8192,0 -3.7346,0 -7.1396,2.28466 -8.5676,5.78858 -1.5377,3.49291 -0.659,7.52404 1.9772,10.20415 61.181,61.17001 279.1039,279.04905 319.9645,319.87665 3.6247,3.65767 9.556,3.65767 13.1808,0 40.8606,-40.8276 258.6737,-258.70664 319.8548,-319.87665 z" /><g
     style="fill:#ffffff;stroke-width:2.49450731"
     id="path19745-65-3-08-3"
     transform="matrix(10.98402,0,0,10.98402,-10186.64,-8965.8771)">
            <path
   d="m 1191.84,752.129 c -0.25,-0.244 -0.61,-0.316 -0.93,-0.185 -0.32,0.132 -0.53,0.443 -0.53,0.788 0,9.468 0,48.779 0,58.247 0,0.344 0.21,0.655 0.53,0.787 0.32,0.132 0.68,0.059 0.93,-0.185 5.56,-5.569 25.4,-25.406 29.12,-29.124 0.33,-0.332 0.33,-0.872 0,-1.205 -3.72,-3.718 -23.56,-23.553 -29.12,-29.123 z"
   style="fill:#ffffff;fill-rule:nonzero;stroke-width:2.49450731"
   id="path41"
   inkscape:connector-curvature="0" />
        </g><g
     style="fill:#ffffff;stroke-width:2.49450731"
     id="path19745-3-4-7-5-7"
     transform="matrix(10.98402,0,0,10.98402,-10186.64,-8965.8771)">
            <path
   d="m 1255.62,811.582 c 0.25,0.243 0.61,0.316 0.93,0.184 0.32,-0.132 0.53,-0.442 0.53,-0.787 0,-9.468 0,-48.779 0,-58.247 0,-0.345 -0.21,-0.656 -0.53,-0.787 -0.32,-0.132 -0.68,-0.059 -0.93,0.184 -5.57,5.57 -25.4,25.407 -29.12,29.124 -0.33,0.333 -0.33,0.873 0,1.206 3.72,3.718 23.55,23.553 29.12,29.123 z"
   style="fill:#ffffff;fill-rule:nonzero;stroke-width:2.49450731"
   id="path44"
   inkscape:connector-curvature="0" />
        </g><g
     style="fill:#ffffff;stroke-width:2.49450731"
     id="path19745-3-3-42-2-06-5"
     transform="matrix(10.98402,0,0,10.98402,-10186.64,-8965.8771)">
            <path
   d="m 1253.45,749.962 c 0.25,-0.243 0.32,-0.61 0.19,-0.929 -0.13,-0.318 -0.44,-0.526 -0.79,-0.526 -9.47,0 -48.78,0 -58.24,0 -0.35,0 -0.66,0.208 -0.79,0.526 -0.13,0.319 -0.06,0.686 0.18,0.929 5.57,5.57 25.41,25.406 29.13,29.123 0.33,0.333 0.87,0.333 1.2,0 3.72,-3.717 23.56,-23.553 29.12,-29.123 z"
   style="fill:#ffffff;fill-rule:nonzero;stroke-width:2.49450731"
   id="path47"
   inkscape:connector-curvature="0" />
        </g><g
     style="fill:#ffffff;stroke-width:2.49450731"
     id="path19745-5-5-4-9"
     transform="matrix(10.98402,0,0,10.98402,-10186.64,-8969.5502)">
            <path
   d="m 1309.48,752.471 c -0.24,-0.244 -0.61,-0.317 -0.93,-0.185 -0.32,0.132 -0.53,0.443 -0.53,0.787 0,9.468 0,48.779 0,58.247 0,0.345 0.21,0.656 0.53,0.788 0.32,0.132 0.69,0.059 0.93,-0.185 5.57,-5.57 25.4,-25.406 29.12,-29.124 0.33,-0.333 0.33,-0.873 0,-1.206 -3.72,-3.717 -23.55,-23.553 -29.12,-29.122 z"
   style="fill:#ffffff;fill-rule:nonzero;stroke-width:2.49450731"
   id="path52"
   inkscape:connector-curvature="0" />
        </g><g
     style="fill:#ffffff;stroke-width:2.49450731"
     id="path19745-2-61-3-6-2"
     transform="matrix(10.98402,0,0,10.98402,-10186.64,-8969.5502)">
            <path
   d="m 1311.65,814.09 c -0.25,0.244 -0.32,0.61 -0.19,0.929 0.13,0.318 0.44,0.526 0.79,0.526 9.47,0 48.78,0 58.25,0 0.34,0 0.65,-0.208 0.78,-0.526 0.13,-0.319 0.06,-0.685 -0.18,-0.929 -5.57,-5.57 -25.41,-25.405 -29.13,-29.123 -0.33,-0.333 -0.87,-0.333 -1.2,0 -3.72,3.718 -23.56,23.553 -29.12,29.123 z"
   style="fill:#ffffff;fill-rule:nonzero;stroke-width:2.49450731"
   id="path55"
   inkscape:connector-curvature="0" />
        </g><g
     style="fill:#ffffff;stroke-width:2.49450731"
     id="path19745-3-3-3-7-2-2"
     transform="matrix(10.98402,0,0,10.98402,-10186.64,-8969.5502)">
            <path
   d="m 1371.1,750.304 c 0.24,-0.244 0.31,-0.611 0.18,-0.929 -0.13,-0.319 -0.44,-0.526 -0.78,-0.526 -9.47,0 -48.78,0 -58.25,0 -0.35,0 -0.66,0.207 -0.79,0.526 -0.13,0.318 -0.06,0.685 0.19,0.929 5.57,5.569 25.4,25.405 29.12,29.123 0.33,0.332 0.87,0.332 1.21,0 3.71,-3.718 23.55,-23.554 29.12,-29.123 z"
   style="fill:#ffffff;fill-rule:nonzero;stroke-width:2.49450731"
   id="path58"
   inkscape:connector-curvature="0" />
        </g><path
     d="m 3746.1546,-713.57997 c -2.6363,-2.66911 -6.7003,-3.47096 -10.2152,-2.02106 -3.5149,1.44989 -5.8215,4.85493 -5.8215,8.64442 0,103.99671 0,535.78958 0,639.786288 0,3.789431 2.3066,7.194569 5.8215,8.644343 3.5149,1.449973 7.5789,0.648088 10.2152,-2.020964 61.1809,-61.181087 279.104,-279.071067 319.8546,-319.898667 3.6247,-3.65767 3.6247,-9.58904 0,-13.24674 -40.8606,-40.83857 -258.6737,-258.70663 -319.8546,-319.88762 z"
     style="fill:#ffffff;fill-rule:nonzero;stroke-width:27.39971542"
     id="path63"
     inkscape:connector-curvature="0" /></g></svg>